<svg xmlns="http://www.w3.org/2000/svg" width="512" height="512" viewBox="0 0 512 512">
  <defs>
    <linearGradient id="g" x1="0" y1="0" x2="1" y2="1">
      <stop offset="0" stop-color="#6366f1"/>
      <stop offset="1" stop-color="#a855f7"/>
    </linearGradient>
  </defs>
  <rect width="512" height="512" rx="112" fill="url(#g)"/>
  <g transform="translate(96 96)">
    <rect x="0" y="0" width="320" height="320" rx="26" fill="#ffffff"/>
    <g stroke="#c9cde0" stroke-width="4">
      <line x1="106.6" y1="10" x2="106.6" y2="310"/>
      <line x1="213.3" y1="10" x2="213.3" y2="310"/>
      <line x1="10" y1="106.6" x2="310" y2="106.6"/>
      <line x1="10" y1="213.3" x2="310" y2="213.3"/>
    </g>
    <g stroke="#4f46e5" stroke-width="7" stroke-linecap="round">
      <line x1="106.6" y1="4" x2="106.6" y2="316"/>
      <line x1="213.3" y1="4" x2="213.3" y2="316"/>
      <line x1="4" y1="106.6" x2="316" y2="106.6"/>
      <line x1="4" y1="213.3" x2="316" y2="213.3"/>
    </g>
    <g fill="#4f46e5" font-family="-apple-system,Helvetica,Arial,sans-serif" font-weight="700" font-size="66" text-anchor="middle">
      <text x="53.3" y="76">5</text>
      <text x="266.6" y="76">3</text>
      <text x="160" y="182">7</text>
      <text x="53.3" y="289">1</text>
      <text x="266.6" y="289">9</text>
    </g>
    <g fill="#a855f7" font-family="-apple-system,Helvetica,Arial,sans-serif" font-weight="700" font-size="66" text-anchor="middle">
      <text x="160" y="76">8</text>
      <text x="53.3" y="182">2</text>
      <text x="266.6" y="182">6</text>
      <text x="160" y="289">4</text>
    </g>
  </g>
</svg>
